<svg width="2005" height="1925" xmlns="http://www.w3.org/2000/svg" xmlns:xlink="http://www.w3.org/1999/xlink" xml:space="preserve" overflow="hidden"><defs><clipPath id="clip0"><rect x="853" y="310" width="2005" height="1925"/></clipPath></defs><g clip-path="url(#clip0)" transform="translate(-853 -310)"><path d="M477.916 16.9535C571.064 119.006 699.465 181.885 837.169 192.884 862.751 195.284 882.248 216.858 882.063 242.563L882.063 367.945C882.063 640.492 708.784 889.831 468.192 1044.11 451.661 1054.72 430.467 1054.72 413.938 1044.11 173.344 889.831 0.0657835 640.492 0.0657835 367.945L0.0657835 242.563C-0.119977 216.858 19.377 195.284 44.9587 192.884 182.663 181.885 311.064 119.006 404.214 16.9535 421.774-3.40705 452.507-5.67153 472.86 11.8952 474.666 13.4552 476.356 15.1456 477.916 16.9535Z" stroke="#FFFFFF" stroke-width="14.9514" stroke-miterlimit="8" fill="#13294B" fill-rule="evenodd" transform="matrix(-1 1.22465e-16 1.22465e-16 1 2297.5 638.5)"/><path d="M1855.58 1046.9C1897 1046.9 1930.58 1079.92 1930.58 1120.65 1930.58 1141.02 1922.19 1159.46 1908.62 1172.8L1891.59 1184.08 1891.65 1186.08C1891.65 1238.45 1886.45 1280.9 1880.05 1280.9L1831.11 1280.9C1824.71 1280.9 1819.51 1238.45 1819.51 1186.08L1819.56 1184.08 1802.54 1172.8C1788.97 1159.46 1780.58 1141.02 1780.58 1120.65 1780.58 1079.92 1814.15 1046.9 1855.58 1046.9Z" fill="#FFFFFF" fill-rule="evenodd"/><path d="M917.01 803.278C869.806 720.358 898.267 615.15 980.566 568.299 1062.86 521.448 1167.86 550.682 1215.06 633.601 1262.27 716.521 1233.81 821.728 1151.51 868.579 1069.21 915.43 964.214 886.197 917.01 803.278Z" stroke="#13294B" stroke-width="82.0868" stroke-miterlimit="8" fill="none" fill-rule="evenodd"/><path d="M2717.78 559.156C2803.99 600.054 2840.96 702.581 2800.37 788.141 2759.78 873.7 2656.98 909.918 2570.78 869.02 2484.57 828.123 2447.6 725.596 2488.19 640.036 2528.78 554.477 2631.58 518.259 2717.78 559.156Z" stroke="#13294B" stroke-width="82.0868" stroke-miterlimit="8" fill="none" fill-rule="evenodd"/><path d="M1964.45 2154.77C1890.46 2215.02 1782 2204.32 1722.2 2130.89 1662.41 2057.46 1673.9 1949.08 1747.89 1888.83 1821.87 1828.58 1930.34 1839.28 1990.13 1912.71 2049.93 1986.14 2038.44 2094.53 1964.45 2154.77Z" stroke="#13294B" stroke-width="82.0868" stroke-miterlimit="8" fill="none" fill-rule="evenodd"/><path d="M0 0 530.273 257.737" stroke="#13294B" stroke-width="66.4583" stroke-miterlimit="8" fill="none" fill-rule="evenodd" transform="matrix(0.996998 0.0774241 0.0774241 -0.996998 1451.74 559.949)"/><path d="M1979.43 340.303 2488.15 638.322" stroke="#13294B" stroke-width="66.4583" stroke-miterlimit="8" fill="none" fill-rule="evenodd"/><path d="M0 0 530.273 251.103" stroke="#13294B" stroke-width="66.4583" stroke-miterlimit="8" fill="none" fill-rule="evenodd" transform="matrix(-0.537447 0.843298 0.843298 0.537447 2585.49 1097.75)"/><path d="M2525.36 1663.13 2028.61 1975.35" stroke="#13294B" stroke-width="66.4583" stroke-miterlimit="8" fill="none" fill-rule="evenodd"/><path d="M0 0 530.273 257.737" stroke="#13294B" stroke-width="66.4583" stroke-miterlimit="8" fill="none" fill-rule="evenodd" transform="matrix(-0.457232 -0.889347 -0.889347 0.457232 1538.47 1806.77)"/><path d="M1074.6 1472.82 1061.36 883.373" stroke="#13294B" stroke-width="66.4583" stroke-miterlimit="8" fill="none" fill-rule="evenodd"/></g></svg>