<svg width="2480" height="2430" xmlns="http://www.w3.org/2000/svg" xmlns:xlink="http://www.w3.org/1999/xlink" xml:space="preserve" overflow="hidden"><defs><clipPath id="clip0"><rect x="1081" y="627" width="2480" height="2430"/></clipPath><clipPath id="clip1"><rect x="1081" y="627" width="2480" height="2430"/></clipPath></defs><g clip-path="url(#clip0)" transform="translate(-1081 -627)"><g clip-path="url(#clip1)"><path d="M568.663 526.076C622.01 526.076 665.248 568.501 665.248 620.837 665.248 647.005 654.444 670.694 636.969 687.841L615.046 702.334 615.115 704.907C615.115 772.199 608.421 826.743 600.177 826.743L537.151 826.743C528.907 826.743 522.214 772.199 522.214 704.907L522.282 702.334 500.359 687.841C482.884 670.694 472.08 647.005 472.08 620.837 472.08 568.501 515.318 526.076 568.663 526.076ZM563.598 0.288806C547.598 1.46605 532.049 8.74072 520.74 21.8337 400.764 153.086 235.387 233.955 58.0256 248.103 25.0771 251.189-0.0350279 278.936 0.204389 311.996L0.204389 473.253C0.204389 823.781 223.383 1144.46 533.265 1342.88 554.554 1356.53 581.85 1356.53 603.142 1342.88 913.02 1144.46 1136.2 823.781 1136.2 473.253L1136.2 311.996C1136.44 278.936 1111.33 251.189 1078.38 248.103 901.017 233.955 735.64 153.086 615.666 21.8337 613.658 19.5089 611.481 17.3345 609.154 15.3284 596.047 4.03173 579.597-0.88844 563.598 0.288806Z" stroke="#FFFFFF" stroke-width="19.1995" stroke-linecap="butt" stroke-linejoin="miter" stroke-miterlimit="8" stroke-opacity="1" fill="#FFFFFF" fill-rule="evenodd" fill-opacity="1" transform="matrix(-1 1.22465e-16 1.22465e-16 1 2911.5 1082.5)"/><path d="M3319.81 1018.85C3222.89 1018.85 3144.32 1097.44 3144.32 1194.38 3144.32 1291.32 3222.89 1369.9 3319.81 1369.9 3416.73 1369.9 3495.3 1291.32 3495.3 1194.38 3495.3 1097.44 3416.73 1018.85 3319.81 1018.85ZM3328.47 965.729C3357.27 967.04 3386.33 973.994 3414.05 987.15 3524.96 1039.77 3572.52 1171.69 3520.3 1281.78 3468.08 1391.87 3335.84 1438.47 3224.95 1385.85 3114.04 1333.23 3066.48 1201.31 3118.7 1091.22 3157.86 1008.65 3242.04 961.796 3328.47 965.729Z" stroke="#FFFFFF" stroke-width="33.2292" stroke-linecap="butt" stroke-linejoin="miter" stroke-miterlimit="8" stroke-opacity="1" fill="#FFFFFF" fill-rule="evenodd" fill-opacity="1"/><path d="M0.219423 0.0046916 682.013 331.381" stroke="#FFFFFF" stroke-width="85.3413" stroke-linecap="butt" stroke-linejoin="miter" stroke-miterlimit="8" stroke-opacity="1" fill="#FFFFFF" fill-rule="evenodd" fill-opacity="1" transform="matrix(0.996998 0.0774241 0.0774241 -0.996998 1798.62 948.362)"/><path d="M2477.19 666.388 3131.19 1049.39" stroke="#FFFFFF" stroke-width="85.3413" stroke-linecap="butt" stroke-linejoin="miter" stroke-miterlimit="8" stroke-opacity="1" fill="#FFFFFF" fill-rule="evenodd" fill-opacity="1"/><path d="M0.516437 0.34393 682.31 323.191" stroke="#FFFFFF" stroke-width="85.3413" stroke-linecap="butt" stroke-linejoin="miter" stroke-miterlimit="8" stroke-opacity="1" fill="#FFFFFF" fill-rule="evenodd" fill-opacity="1" transform="matrix(-0.537447 0.843298 0.843298 0.537447 3263.73 1613.03)"/><path d="M3186.19 2340.39 2548.19 2741.39" stroke="#FFFFFF" stroke-width="85.3413" stroke-linecap="butt" stroke-linejoin="miter" stroke-miterlimit="8" stroke-opacity="1" fill="#FFFFFF" fill-rule="evenodd" fill-opacity="1"/><path d="M0.0664042 0.429823 681.86 331.806" stroke="#FFFFFF" stroke-width="85.3413" stroke-linecap="butt" stroke-linejoin="miter" stroke-miterlimit="8" stroke-opacity="1" fill="#FFFFFF" fill-rule="evenodd" fill-opacity="1" transform="matrix(-0.457232 -0.889347 -0.889347 0.457232 1934.88 2584.42)"/><path d="M1338.19 2155.39 1321.19 1397.39" stroke="#FFFFFF" stroke-width="85.3413" stroke-linecap="butt" stroke-linejoin="miter" stroke-miterlimit="8" stroke-opacity="1" fill="#FFFFFF" fill-rule="evenodd" fill-opacity="1"/><path d="M1322.31 1009.73C1225.61 1009.73 1147.21 1088.14 1147.21 1184.86 1147.21 1281.58 1225.61 1359.99 1322.31 1359.99 1419.01 1359.99 1497.4 1281.58 1497.4 1184.86 1497.4 1088.14 1419.01 1009.73 1322.31 1009.73ZM1330.94 956.729C1359.69 958.037 1388.68 964.975 1416.34 978.101 1526.99 1030.6 1574.45 1162.23 1522.35 1272.07 1470.25 1381.91 1338.3 1428.4 1227.66 1375.9 1117.01 1323.4 1069.55 1191.77 1121.65 1081.93 1160.73 999.553 1244.72 952.804 1330.94 956.729Z" stroke="#FFFFFF" stroke-width="33.2292" stroke-linecap="butt" stroke-linejoin="miter" stroke-miterlimit="8" stroke-opacity="1" fill="#FFFFFF" fill-rule="evenodd" fill-opacity="1"/><path d="M2343.81 2651.85C2246.89 2651.85 2168.32 2730.44 2168.32 2827.38 2168.32 2924.32 2246.89 3002.9 2343.81 3002.9 2440.73 3002.9 2519.3 2924.32 2519.3 2827.38 2519.3 2730.44 2440.73 2651.85 2343.81 2651.85ZM2352.47 2598.73C2381.27 2600.04 2410.33 2606.99 2438.05 2620.15 2548.96 2672.77 2596.52 2804.69 2544.3 2914.78 2492.08 3024.87 2359.84 3071.47 2248.95 3018.85 2138.04 2966.23 2090.48 2834.31 2142.7 2724.22 2181.86 2641.65 2266.04 2594.8 2352.47 2598.73Z" stroke="#FFFFFF" stroke-width="33.2292" stroke-linecap="butt" stroke-linejoin="miter" stroke-miterlimit="8" stroke-opacity="1" fill="#FFFFFF" fill-rule="evenodd" fill-opacity="1"/></g></g></svg>